<svg xmlns="http://www.w3.org/2000/svg" width="600" height="400" viewBox="0 0 2400 1600"><defs><clipPath id="a"><path d="M0 0h2400v1600H0z"/></clipPath></defs><path clip-path="url(#a)" d="M0 1600h2400V0H0Z" fill="#fff" fill-rule="evenodd"/><path clip-path="url(#a)" d="M186 1486h2167V47H186Z" fill="#fff" fill-rule="evenodd"/><defs><clipPath id="b"><path d="M186 47h2167v1440H186z"/></clipPath></defs><path clip-path="url(#b)" style="stroke:#000;stroke-linecap:butt;stroke-linejoin:round;stroke-width:2;stroke-opacity:.1;fill:none" d="M248 1486V47M759 1486V47M1270 1486V47M1780 1486V47M2291 1486V47"/><path clip-path="url(#a)" style="stroke:#000;stroke-linecap:butt;stroke-linejoin:round;stroke-width:4;stroke-opacity:1;fill:none" d="M186 1486h2167M248 1486v-18M759 1486v-18M1270 1486v-18M1780 1486v-18M2291 1486v-18"/><path clip-path="url(#a)" d="M225 1517q-4 0-5 4-2 3-2 11 0 7 2 10 1 4 5 4t5-4q2-3 2-10 0-8-2-11-1-4-5-4m0-3q6 0 9 4 3 5 3 14 0 8-3 13t-9 5q-6 0-9-5t-3-13q0-9 3-14 3-4 9-4ZM245 1543h5v6h-5v-6ZM270 1517q-3 0-5 4-2 3-2 11 0 7 2 10 2 4 5 4 4 0 6-4l1-10-1-11q-2-4-6-4m0-3q6 0 9 4 3 5 3 14 0 8-3 13t-9 5q-6 0-9-5t-3-13q0-9 3-14 3-4 9-4ZM736 1517q-3 0-5 4-2 3-2 11 0 7 2 10 2 4 5 4 4 0 6-4 2-3 2-10 0-8-2-11-2-4-6-4m0-3q6 0 9 4 3 5 3 14 0 8-3 13t-9 5q-5 0-8-5-4-5-4-13 0-9 4-14 3-4 8-4ZM757 1543h4v6h-4v-6ZM772 1514h18v4h-14v9l2-1h2q6 0 9 3 4 3 4 9 0 5-4 8-3 4-10 4l-4-1-5-1v-5l5 2 4 1q4 0 7-3 2-2 2-5 0-4-2-6-3-2-7-2h-3l-4 2v-18ZM1237 1545h7v-26l-8 1v-4l8-2h5v31h8v4h-20v-4ZM1266 1543h5v6h-5v-6ZM1291 1517q-4 0-5 4-2 3-2 11 0 7 2 10 1 4 5 4t6-4l1-10-1-11q-2-4-6-4m0-3q6 0 9 4 3 5 3 14 0 8-3 13t-9 5q-6 0-9-5t-3-13q0-9 3-14 3-4 9-4ZM1748 1545h8v-26l-9 1v-4l9-2h4v31h8v4h-20v-4ZM1777 1543h5v6h-5v-6ZM1793 1514h18v4h-14v9l2-1h2q6 0 9 3 4 3 4 9 0 5-4 8-3 4-10 4l-4-1-5-1v-5l4 2 5 1q4 0 6-3 3-2 3-5 0-4-3-6-2-2-6-2h-4l-3 2v-18ZM2263 1545h16v4h-22v-4l7-7 6-6 3-5 1-3q0-3-2-5l-5-1h-5l-5 3v-5l6-2h4q5 0 9 2 3 3 3 8l-1 4-3 4-4 4-8 9ZM2289 1543h5v6h-5v-6ZM2314 1517q-4 0-6 4l-1 11 1 10q2 4 6 4t5-4q2-3 2-10 0-8-2-11-1-4-5-4m0-3q6 0 9 4 3 5 3 14 0 8-3 13t-9 5q-6 0-9-5t-3-13q0-9 3-14 3-4 9-4Z" fill-rule="evenodd"/><path clip-path="url(#b)" style="stroke:#000;stroke-linecap:butt;stroke-linejoin:round;stroke-width:2;stroke-opacity:.1;fill:none" d="M186 1446h2167M186 1106h2167M186 767h2167M186 427h2167M186 88h2167"/><path clip-path="url(#a)" style="stroke:#000;stroke-linecap:butt;stroke-linejoin:round;stroke-width:4;stroke-opacity:1;fill:none" d="M186 1486V47M186 1446h19M186 1106h19M186 767h19M186 427h19M186 88h19"/><path clip-path="url(#a)" d="M63 1432q-4 0-6 3l-1 11 1 10q2 4 6 4t5-4q2-3 2-10t-2-11q-1-3-5-3m0-4q6 0 9 4 3 5 3 14 0 8-3 13t-9 5q-6 0-9-5t-3-13q0-9 3-14 3-4 9-4ZM83 1457h5v6h-5v-6ZM108 1432q-3 0-5 3-2 4-2 11t2 10q2 4 5 4 4 0 6-4l1-10-1-11q-2-3-6-3m0-4q6 0 9 4 3 5 3 14 0 8-3 13t-9 5q-6 0-9-5t-3-13q0-9 3-14 3-4 9-4ZM138 1432q-3 0-5 3-2 4-2 11t2 10q2 4 5 4 4 0 6-4 2-3 2-10t-2-11q-2-3-6-3m0-4q6 0 9 4 3 5 3 14 0 8-3 13t-9 5q-5 0-9-5-3-5-3-13 0-9 3-14 4-4 9-4ZM64 1092q-4 0-6 4l-1 10 1 11q2 4 6 4t5-4q2-4 2-11t-2-10q-1-4-5-4m0-4q6 0 9 5t3 13q0 9-3 14-3 4-9 4t-9-4q-3-5-3-14 0-8 3-13t9-5ZM84 1118h5v6h-5v-6ZM103 1120h17v4H98v-4l7-8 6-6 3-4 1-3q0-3-2-5t-5-2l-5 1-5 2v-4l5-2 5-1q5 0 8 3t3 7v4l-3 5-4 4-9 9ZM129 1089h19v4h-14v8h4q6 0 9 3t3 8q0 6-3 9-4 3-10 3h-4l-5-1v-5l4 2h5q4 0 6-2 3-2 3-6 0-3-3-5-2-2-6-2h-4l-4 1v-17ZM63 753q-4 0-6 3l-1 11 1 11q2 3 6 3t5-3q2-4 2-11t-2-11q-1-3-5-3m0-4q6 0 9 5 3 4 3 13t-3 13q-3 5-9 5t-9-5q-3-4-3-13t3-13q3-5 9-5ZM83 778h5v6h-5v-6ZM98 750h19v4h-15v8l3-1h2q5 0 9 3 3 4 3 9 0 6-3 9-4 3-10 3l-5-1-4-1v-4l4 1 5 1q4 0 6-2t2-6q0-4-2-6t-6-2l-4 1-4 1v-17ZM138 753q-3 0-5 3-2 4-2 11t2 11q2 3 5 3 4 0 6-3 2-4 2-11t-2-11q-2-3-6-3m0-4q6 0 9 5 3 4 3 13t-3 13q-3 5-9 5-5 0-9-5-3-4-3-13t3-13q4-5 9-5ZM64 413q-4 0-6 4l-1 10 1 11q2 4 6 4t5-4q2-3 2-11 0-7-2-10-1-4-5-4m0-3q6 0 9 4 3 5 3 13 0 9-3 14-3 4-9 4t-9-4q-3-5-3-14 0-8 3-13 3-4 9-4ZM84 439h5v6h-5v-6ZM98 410h22v2l-12 33h-5l12-31H98v-4ZM129 410h19v4h-14v9l2-1h2q6 0 9 3t3 9q0 5-3 8-4 3-10 3h-4l-5-1v-5l4 2h5q4 0 6-2 3-2 3-5 0-4-3-6-2-2-6-2h-4l-4 1v-17ZM54 101h7V75l-8 2v-5l8-1h5v30h8v4H54v-4ZM83 99h5v6h-5v-6ZM108 74q-3 0-5 3-2 4-2 11t2 11q2 3 5 3 4 0 6-3l1-11-1-11q-2-3-6-3m0-4q6 0 9 5 3 4 3 13t-3 13q-3 5-9 5t-9-5q-3-4-3-13t3-13q3-5 9-5ZM138 74q-3 0-5 3-2 4-2 11t2 11q2 3 5 3 4 0 6-3 2-4 2-11t-2-11q-2-3-6-3m0-4q6 0 9 5 3 4 3 13t-3 13q-3 5-9 5-5 0-9-5-3-4-3-13t3-13q4-5 9-5Z" fill-rule="evenodd"/><path clip-path="url(#b)" style="stroke:#009af9;stroke-linecap:butt;stroke-linejoin:round;stroke-width:20;stroke-opacity:1;fill:none" d="M248 1446 1270 88"/><path clip-path="url(#b)" style="stroke:#e26f46;stroke-linecap:butt;stroke-linejoin:round;stroke-width:20;stroke-opacity:1;fill:none" d="m1270 88 1021 1358"/><circle clip-path="url(#b)" cx="247.6" cy="1445.7" r="14" fill="#3da44d" fill-rule="evenodd" stroke="#000" stroke-width="3.2"/><circle clip-path="url(#b)" cx="1269.5" cy="88" r="14" fill="#3da44d" fill-rule="evenodd" stroke="#000" stroke-width="3.2"/><circle clip-path="url(#b)" cx="2291.4" cy="1445.7" r="14" fill="#3da44d" fill-rule="evenodd" stroke="#000" stroke-width="3.2"/><path clip-path="url(#a)" d="M231 1421h13v-46l-14 2v-7l14-3h8v54h14v7h-35v-7ZM1260 63h29v7h-39v-7l13-13 10-10 6-8 1-6q0-5-3-8-4-3-9-3l-8 1-9 5v-9l9-3 8-1q9 0 15 5 5 5 5 13l-1 7-5 7-7 7-15 16ZM2299 1395q6 1 9 5t3 10q0 9-6 14t-17 5l-8-1-8-2v-8l7 3 8 1q8 0 12-3t4-9q0-5-4-8-3-3-10-3h-7v-7h7q6 0 10-3 3-2 3-6 0-5-4-8-3-2-9-2l-7 1-9 2v-7l9-2 8-1q9 0 15 4 5 4 5 12 0 5-3 8-3 4-8 5Z" fill-rule="evenodd"/><path clip-path="url(#b)" style="stroke:#c271d2;stroke-linecap:butt;stroke-linejoin:round;stroke-width:20;stroke-opacity:1;fill:none" d="M248 1446 1519 88"/><path clip-path="url(#b)" style="stroke:#ac8d18;stroke-linecap:butt;stroke-linejoin:round;stroke-width:20;stroke-opacity:1;fill:none" d="m1519 88 772 1358"/><circle clip-path="url(#b)" cx="247.6" cy="1445.7" r="14" fill="#00a9ad" fill-rule="evenodd" stroke="#000" stroke-width="3.2"/><circle clip-path="url(#b)" cx="1518.7" cy="88" r="14" fill="#00a9ad" fill-rule="evenodd" stroke="#000" stroke-width="3.2"/><circle clip-path="url(#b)" cx="2291.4" cy="1445.7" r="14" fill="#00a9ad" fill-rule="evenodd" stroke="#000" stroke-width="3.2"/><path clip-path="url(#a)" d="M231 1421h13v-46l-14 2v-7l14-3h8v54h14v7h-35v-7ZM1509 63h29v7h-39v-7l13-13 10-10 6-8 1-6q0-5-3-8t-9-3l-8 1-9 5v-9l9-3 8-1q9 0 15 5t6 13l-2 7-5 7-6 7-16 16ZM2299 1395q6 1 9 5t3 10q0 9-6 14t-17 5l-8-1-8-2v-8l7 3 8 1q8 0 12-3t4-9q0-5-4-8-3-3-10-3h-7v-7h7q6 0 10-3 3-2 3-6 0-5-4-8-3-2-9-2l-7 1-9 2v-7l9-2 8-1q9 0 15 4 5 4 5 12 0 5-3 8-3 4-8 5Z" fill-rule="evenodd"/></svg>